Himalaya (1999)

An aging chief's last stand, lessons for the new, and the education of a young chief-to-be played against harsh Nature in Nepal's Dolpo. When his son dies returning from Tibet's salt lakes, Tinle blames Karma, his son's friend, refuses to give Karma his blessing as the new chief, and organizes a rival caravan to take the salt to lower Nepal to trade for grain. He, a few old men, his son's widow, his grandson, and his second son, a monk, set out on the arduous journey. Fearing storms, Karma has led his caravan out of the village before the auspicious day ordained by the lamas. Tinle's group catches Karma's before the final pass; the two stubborn men lock wills with Tinle's grandson watching.
 
Format                           : AVI
Format/Info                      : Audio Video Interleave
File size                        : 699 MiB
Duration                         : 1h 43mn
Overall bit rate                 : 942 Kbps
Writing application              : VirtualDubMod 1.5.4.1 (build 

2178/release)
Writing library                  : VirtualDubMod build 2178/release
Language                         : Tibetan
Subtitles                        : English(Hardcoded)
Genre                            : Drama

Video
ID                               : 0
Format                           : MPEG-4 Visual
Format profile                   : Advanced Simple@L5
Format settings, BVOP            : Yes
Format settings, QPel            : No
Format settings, GMC             : No warppoints
Format settings, Matrix          : Custom
Codec ID                         : XVID
Codec ID/Hint                    : XviD
Duration                         : 1h 43mn
Bit rate                         : 809 Kbps
Width                            : 480 pixels
Height                           : 288 pixels
Display aspect ratio             : 1.667
Frame rate                       : 29.970 fps
Color space                      : YUV
Chroma subsampling               : 4:2:0
Bit depth                        : 8 bits
Scan type                        : Progressive
Bits/(Pixel*Frame)               : 0.195
Stream size                      : 600 MiB (86%)
Writing library                  : XviD 1.2.1 (UTC 2008-12-04)

Audio
ID                               : 1
Format                           : MPEG Audio
Format version                   : Version 1
Format profile                   : Layer 3
Mode                             : Joint stereo
Mode extension                   : MS Stereo
Codec ID                         : 55
Codec ID/Hint                    : MP3
Duration                         : 1h 43mn
Bit rate mode                    : Variable
Bit rate                         : 119 Kbps
Nominal bit rate                 : 128 Kbps
Channel(s)                       : 2 channels
Sampling rate                    : 48.0 KHz
Stream size                      : 88.0 MiB (13%)
Alignment                        : Aligned on interleaves
Interleave, duration             : 24 ms (0.72 video frame)
Interleave, preload duration     : 518 ms
Writing library                  : LAME3.98r
Encoding settings                : -m j -V 4 -q 2 -lowpass 17 --abr 128
 
http://leetleech.org/images/06866382321738330875.png 
http://leetleech.org/images/33164383868278978255.png 
http://leetleech.org/images/17686151424312034564.png 
http://leetleech.org/images/19016979886132180844.png 
http://leetleech.org/images/23303242292735731853.png 
http://leetleech.org/images/11050138311319437599.png
 
http://www.youtube.com/watch?v=PxPeZJymEvo
 
http://www.imdb.com/title/tt0210727/
 
http://leetleech.org/images/97913465899887526311.png